<?xml version="1.0"?><svg width="500" height="375" xmlns="http://www.w3.org/2000/svg" xmlns:xlink="http://www.w3.org/1999/xlink">
 <defs>
  <linearGradient id="linearGradient2413">
   <stop offset="0" stop-color="#00006d" id="stop2415"/>
   <stop offset="0.5" stop-opacity="0.836735" stop-color="#1f4b72" id="stop2419"/>
   <stop offset="1" stop-opacity="0" stop-color="#ffffff" id="stop2417"/>
  </linearGradient>
  <linearGradient id="linearGradient2988">
   <stop offset="0" stop-color="#ffffff" id="stop2990"/>
   <stop offset="1" stop-opacity="0" stop-color="#ffffff" id="stop2992"/>
  </linearGradient>
  <pattern height="131.125" width="131.094" patternTransform="translate(-311.625 -153.031)" patternUnits="userSpaceOnUse" id="pattern2966">
   <path d="m40.0938,0.49995l0,31.12505l56.562504,0l0,-31.12505l-56.562504,0zm56.562504,31.12505l0,62.218697l33.937691,0l0,-62.218697l-33.937691,0zm0,62.218697l-56.562504,0l0,36.781303l56.562504,0l0,-36.781303zm-56.562504,0l0,-62.218697l-39.5938,0l0,62.218697l39.5938,0z" stroke-width="1px" stroke="#000000" fill-rule="evenodd" fill-opacity="0.75" fill="none" id="path2968"/>
  </pattern>
  <linearGradient xlink:href="#linearGradient2988" y2="0.030005" x2="0.552816" y1="0.810006" x1="0.359154" id="linearGradient2393"/>
  <radialGradient xlink:href="#linearGradient2413" fy="252.703" fx="195.702" r="158.864" cy="252.703" cx="195.702" gradientTransform="scale(1.29728 0.770846)" gradientUnits="userSpaceOnUse" id="radialGradient2429"/>
 </defs>
 <g>
  <title>Layer 1</title>
  <path d="m483.86499,211.720993c0.026001,58.293015 -107.852997,105.555008 -240.936996,105.555008c-133.083992,0 -240.962994,-47.261993 -240.936784,-105.555008c-0.02622,-58.292999 107.852792,-105.554993 240.936784,-105.554993c133.084,0 240.962997,47.261993 240.936996,105.554993z" stroke-width="1.425" stroke-miterlimit="4" stroke-linejoin="round" stroke-linecap="round" stroke-dashoffset="0" fill-rule="evenodd" fill="url(#radialGradient2429)" id="path2421"/>
  <path d="m146.007996,137.389008c0,0 144.859009,-48.965904 144.859009,-58.14711c0,-9.181198 -4.080994,-4.080597 -5.101013,-14.281898c16.322021,-19.3825 0,-20.402599 -11.220978,-26.523399c-7.141022,17.342201 -46.92601,33.664299 -46.92601,33.664299l-90.792007,49.986099l9.181,15.30201z" stroke-width="1.55287px" stroke="#000000" fill-rule="evenodd" fill="#7f3f00" id="path2130"/>
  <path d="m375.923004,59.859299c-3.059998,-6.120697 -22.442993,-12.241497 -26.52301,-8.160999c-4.080994,4.080502 -23.983002,15.064999 -30.104004,19.145504c-6.121002,4.080597 -8.423981,11.221497 -16.821991,10.438293c-6.121002,-3.060394 -24.483002,-12.241493 -25.503998,-6.120796c-1.019989,6.120796 -6.119995,41.825699 21.423004,41.825699c27.544006,0 57.127991,10.201004 65.289001,-6.121002c8.16098,-16.322098 12.240997,-51.006699 12.240997,-51.006699z" stroke-width="1.55287px" stroke="#000000" fill-rule="evenodd" fill="#7f3f00" id="path2120"/>
  <path d="m395.94101,152.690994c0,0 1.019989,-51.005997 -3.061005,-60.187393c-4.080017,-9.181198 -12.240997,-27.543602 -16.321991,-31.6241c-4.080017,-4.080502 -7.141022,-5.1007 -11.221008,0c-4.080994,5.100601 -4.080994,23.462997 -9.182007,30.603996c-5.100006,7.1409 -8.161011,12.241501 -18.362,13.261505c-10.200989,1.019997 -21.423004,-4.080002 -30.604004,-12.241402c-9.181,-8.161102 -15.302002,-18.362404 -22.442993,-20.402702c-7.140991,-2.040199 -8.161011,0 -20.403015,7.140999c-12.240982,7.1409 -113.233994,44.886101 -113.233994,44.886101l-10.201996,-1.019997l104.054001,-61.208401c0,0 -83.651001,44.885403 -98.953003,53.047398c-15.302002,8.161003 -23.462997,16.321999 -31.623993,17.342003c-8.161003,1.020004 -32.644203,-5.100998 -39.785202,-1.020004c-7.1409,4.080002 -14.281799,6.12001 -17.342201,14.281006c-3.060398,8.162003 -6.1208,35.705002 -6.1208,35.705002c0,0 12.2416,16.321991 27.543598,20.403c15.302002,4.080002 89.771606,20.401993 108.133606,17.341995c18.362991,-3.059998 47.946991,-3.059998 60.188004,-10.201004c12.242004,-7.140991 34.684998,-8.160995 45.906006,-8.160995c11.221985,0 61.207977,4.080002 74.470001,-2.041c13.261993,-6.119995 21.422974,-29.582993 25.502991,-33.664001c4.080994,-4.080994 3.061005,-12.242004 3.061005,-12.242004z" stroke-width="1.675" stroke="#000000" fill-rule="evenodd" fill="#7f3f00" id="path2116"/>
  <path d="m393.381989,144.751007c2.256012,-5.641006 2.256012,31.587997 1.128021,33.843994c-117.326019,22.563004 -186.142014,7.897003 -186.142014,7.897003c0,0 86.866013,7.897003 174.860001,-20.306c7.897003,-6.768997 10.153992,-21.434998 10.153992,-21.434998z" stroke-width="1px" fill-rule="evenodd" fill-opacity="0.227027" fill="#000000" id="path2942"/>
  <path d="m397.980988,158.401001l3.059998,24.878006c0,0 0,1.554993 -1.019989,6.996994c-1.019989,5.442001 -2.040009,8.552002 -8.161011,10.884003c-6.120972,2.332993 -63.247986,10.884003 -66.30899,10.884003c-3.059998,0 -26.52298,-6.219009 -38.764984,-4.664001c-12.240997,1.554993 -20.402008,3.108994 -26.52301,5.442001c-6.121002,2.332001 -19.382996,9.328995 -44.886002,10.105988c-25.503006,0.778 -53.046997,2.333008 -82.630997,-3.886993c-29.583,-6.218994 -30.693001,-6.940002 -54.984001,-16.893005c-13.7733,-6.87999 -24.525101,-12.397995 -32.791401,-21.060989c-0.266102,-15.998001 10.245701,-30.460007 10.245701,-24.241013c5.645298,16.099014 11.353798,14.417007 30.086601,23.080002c14.882095,5.442001 38.2621,18.902008 57.645096,16.570007c19.382004,-2.333008 58.147003,-8.552002 66.307999,-8.552002c8.161011,0 76.509995,4.664001 97.932999,2.332001c21.423004,-2.332001 68.348999,-10.106995 78.550018,-13.994003c10.201996,-3.886993 12.241974,-17.880997 12.241974,-17.880997z" stroke-width="1.35562px" stroke="#000000" fill-rule="evenodd" fill="#171717" id="path2118"/>
  <path d="m141.927994,118.007004l22.014999,13.498993l6.074005,-30.840996l46.380005,2.942001l3.060989,-28.445702l45.906021,8.161102l-10.202011,-16.322105l-19.382004,-1.020195l5.693008,26.167999l-45.196014,-6.197304l-6.71199,29.779205l-47.637009,2.277z" stroke-width="6.25" stroke-miterlimit="4" stroke-linejoin="round" stroke-linecap="round" stroke="#000000" fill-rule="evenodd" fill-opacity="0.75" fill="none" id="path2142"/>
  <path d="m136.440994,127.573997c0,0 -8.160995,4.080009 -17.341995,5.099998c-9.181,1.020004 -35.704399,-2.039993 -35.704399,-2.039993c0,0 -11.221497,0 -1.020103,6.121002c10.201302,6.121002 87.731506,24.483002 76.509506,18.362c-11.221008,-6.121002 -39.785004,-9.181 -47.945999,-14.281998c-8.161003,-5.100006 25.502991,-13.261009 25.502991,-13.261009z" stroke-width="1px" fill-rule="evenodd" fill="url(#linearGradient2393)" id="path2902"/>
  <path d="m373.307007,65.736298c0,0 -2.171997,-8.161098 -4.442993,-2.040298c-2.27002,6.120804 -4.826019,21.422798 -9.435028,27.543602c-3.132996,5.222595 -19.143982,23.617401 -6.14798,13.749397c21.321991,-22.442902 20.026001,-39.252701 20.026001,-39.252701z" stroke-width="1px" fill-rule="evenodd" fill-opacity="0.616216" fill="#ffffff" id="path2904"/>
  <path d="m233.740005,103.724998c0,0 -89.772003,28.564003 -76.51001,34.685005c13.261002,6.119995 76.51001,-34.685005 76.51001,-34.685005z" stroke-width="1px" fill-rule="evenodd" fill-opacity="0.054054" fill="#000000" id="path2906"/>
  <path d="m256.182007,67.000298c9.182007,-3.060398 6.121002,-3.060398 14.281982,-1.020195c8.161011,2.040298 16.322021,12.2416 7.141022,13.261795c-9.181,1.020103 -16.322021,-3.060394 -21.423004,-12.2416z" stroke-width="4.65861" stroke-miterlimit="4" stroke-linejoin="round" stroke-linecap="round" stroke="#000000" fill-rule="evenodd" fill-opacity="0.75" fill="none" id="path2936"/>
  <path d="m257.203003,63.939899c0,0 -4.081009,-9.181198 -11.222,-8.161098c-7.141006,1.020199 -17.341995,8.161098 -9.181,5.1007c7.140991,5.100601 20.403,3.060398 20.403,3.060398z" stroke-width="4.65861" stroke-miterlimit="4" stroke-linejoin="round" stroke-linecap="round" stroke="#000000" fill-rule="evenodd" fill-opacity="0.75" fill="none" id="path2938"/>
  <path d="m247.001007,89.443199l9.181,-23.463097c0,0 -19.382004,10.201401 -25.503006,15.301994" stroke-width="4.65861" stroke-miterlimit="4" stroke="#000000" fill-rule="evenodd" fill-opacity="0.75" fill="none" id="path2940"/>
  <path d="m323.39801,122.870003c0,0 -26.757019,-12.019005 -32.838013,-18.575005c-6.080994,-6.556198 -8.514008,-10.926895 -12.162994,-10.926895c-3.64801,0 -83.921005,37.150894 -91.218002,40.428894c-7.298004,3.278 -34.055008,6.556 -17.028,8.740997c17.028,2.186005 70.542999,0 88.786011,-4.369995c18.243988,-4.371002 64.460999,-15.297997 64.460999,-15.297997z" stroke-width="1.54107" stroke-miterlimit="4" stroke-linejoin="round" stroke="#000000" fill-rule="evenodd" fill-opacity="0.216216" fill="#ffffff" id="path2944"/>
  <path d="m301.204987,87.358101c0,0 27.439026,8.004898 40.436005,2.668297c12.998016,-5.336494 28.884003,-25.348595 34.660004,-28.016899c5.777008,-2.668297 17.5,-6.805 27.610016,-0.1343c10.108978,6.6707 10.293976,-0.700897 13.181976,13.974701c2.888,14.675499 3.978027,40.8591 -7.575989,43.5271c-11.553009,2.668999 -108.312012,-32.018898 -108.312012,-32.018898z" stroke-width="1.425" stroke-miterlimit="4" stroke="#000000" fill-rule="evenodd" fill="#7f3f00" id="path2244"/>
  <path d="m218.886993,176.744995l83.761993,-84.050293c0,0 -7.220978,-4.002403 -4.332977,-10.673103c2.888977,-6.6707 7.220978,-20.0121 21.662994,-18.677998c14.441986,1.334202 38.992004,-2.668201 40.436981,6.670696c1.444,9.339005 -1.444977,17.343803 0,25.348701c1.444,8.004997 -5.776978,2.668304 -10.109985,8.004997c-4.332001,5.336006 -115.533005,97.391998 -115.533005,97.391998l-17.330002,-6.67099l1.444,-17.344009z" stroke-width="1.675" stroke-miterlimit="4" stroke="#000000" fill-rule="evenodd" fill="#7f3f00" id="path2256"/>
  <path d="m385.101013,66.392303c5.007996,-5.222504 14.702972,-4.461704 18.703979,-0.125305c7.085022,3.5298 19.914001,10.2547 10.688019,28.306198c-3.296021,10.317802 -8.973022,23.108803 -12.436005,13.851807c1,15.176994 -0.503021,-35.252304 -16.955994,-42.0327z" stroke-width="1px" fill-rule="evenodd" fill-opacity="0.324324" fill="#000000" id="path2319"/>
  <path d="m129.348999,254.126007c0,0 5.777008,-28.017014 14.442001,-32.020004c8.664993,-4.001999 36.104004,-16.009003 43.324997,-21.346008c7.221008,-5.33699 18.774002,-26.682999 25.994995,-32.018997c7.221008,-5.33699 49.101013,-48.028999 59.210999,-54.699997c10.109009,-6.670998 18.774017,-33.3536 24.550018,-32.019402c5.776978,1.334099 11.553986,6.6707 5.776978,16.009705c-5.776978,9.338699 -80.872986,78.713692 -80.872986,84.050697c0,5.337006 2.888,13.341003 8.664993,13.341003c5.776001,0 98.203018,-94.723007 111.199997,-97.391701c12.998016,-2.668304 30.328003,-5.336601 38.993011,-1.334206c8.665009,4.002899 23.106995,20.011902 24.550995,14.675903c1.444,-5.336998 18.630005,-26.672501 8.520996,-37.345604c-4.121979,-8.926697 -9.304993,-10.669697 -16.526001,-13.337898c-7.220978,-2.668301 -5.393982,-3.076797 9.449005,1.32c11.553009,5.336502 20.217987,1.334103 23.106995,13.3414c2.888,12.007202 10.109009,13.3414 12.997009,33.353104c2.888,20.012001 10.109009,69.375999 10.109009,69.375999l-67.876007,49.362991l-8.665009,8.005005l-20.217987,34.687012c0,0 -25.994995,24.014984 -54.878021,25.348999c-28.882996,1.333984 -79.428986,0 -92.426987,-4.003021c-12.996994,-4.001984 -59.210999,-13.340973 -67.876007,-20.011993c-8.664993,-6.669983 -11.552994,-17.342987 -11.552994,-17.342987z" stroke-width="1.675" stroke-miterlimit="4" stroke="#000000" fill-rule="evenodd" fill="#7f3f00" id="path1465"/>
  <path d="m129.348999,252.835007c0,0 0,18.097 1.444,24.128983c1.444,6.03302 4.333008,13.572998 11.554001,16.58902c7.220001,3.015991 49.100998,18.096985 95.315002,19.60498c46.212997,1.507996 64.986984,-1.507996 89.53801,-10.556c24.550995,-9.048981 28.882996,-13.572998 31.770996,-21.112976c2.888977,-7.541016 5.776978,-21.114014 -7.220001,-21.114014c-12.998016,0 -30.328003,19.605988 -41.881012,25.638c-11.553986,6.032013 -75.097,7.540009 -75.097,7.540009c0,0 -5.776001,-7.540009 -10.108994,-13.572021c-4.332001,-6.03299 -89.537994,-12.065002 -95.315002,-27.145981z" stroke-width="0.712308px" stroke="#000000" fill-rule="evenodd" fill="#000000" id="path1467"/>
  <path d="m195.781006,207.431c0,0 -24.55101,6.669998 -33.216003,12.007004c-8.665009,5.335999 -8.665009,2.667999 -7.221008,6.67099c1.444,4.001999 24.55101,16.009003 67.876007,6.670013c43.325012,-9.339005 118.42099,-26.682007 90.981995,-25.348007c-27.438995,1.334 -75.095993,14.675003 -85.205002,13.341003c-10.110001,-1.334 -33.215988,-13.341003 -33.215988,-13.341003z" stroke-width="1px" fill-rule="evenodd" fill-opacity="0.345946" fill="#ffffff" id="path2240"/>
  <path d="m360.415985,264.799011c0,0 1.444,-23.258011 21.662018,-37.794006c20.217987,-14.536011 56.322998,-34.887009 63.542999,-45.062012c7.221008,-10.175995 7.221008,-14.536987 7.221008,-14.536987c0,0 5.776978,36.340988 1.444,46.515991c-4.332001,10.175003 -59.210022,33.432999 -66.431,33.432999c-7.221008,0 -4.333008,0 -11.554016,2.906998c-7.220001,2.908005 -15.88501,14.537018 -15.88501,14.537018z" stroke-width="1px" fill-rule="evenodd" fill="#000000" id="path2242"/>
  <path d="m407.266998,111.036003c0,0 8.988007,-10.586006 9.862,-18.590805c0.873993,-8.004799 5.101013,-11.037895 -1.891998,-19.042702c-7.562012,-7.534897 -26.988007,-14.942997 -19.993988,-13.608795c6.992981,1.334099 25.753998,7.628395 28.375977,15.633301c2.623016,8.004799 0.257019,18.265594 -4.987976,26.269997c-5.245026,8.005005 -7.867004,21.347 -11.364014,9.339005z" stroke-width="1px" fill-rule="evenodd" fill="#d2eeff" id="path2254"/>
  <path d="m211.667007,183.416l33.214996,9.339005l-10.109009,-36.022003l53.434006,-6.669998l-10.109009,-34.688004l59.210999,-9.338997l-20.217987,-16.009605l-25.994995,8.004906l20.217987,30.6847l-57.766998,9.338989l11.554016,34.688004l-53.434006,10.673004z" stroke-width="7.0877" stroke-miterlimit="4" stroke-linejoin="round" stroke-linecap="round" stroke="#000000" fill-rule="evenodd" fill-opacity="0.75" fill="none" id="path2280"/>
  <path d="m280.987,196.757996l72.208008,-74.711998c0,0 2.888,-5.336998 11.552979,-4.002998c8.665009,1.334 10.109009,6.670998 18.774017,9.339005c8.665009,2.668991 25.994995,8.00499 27.438995,6.67099c1.445007,-1.334 -43.325012,37.356003 -60.654999,45.361008c-17.32901,8.005005 -57.765991,21.345993 -69.319,17.343994z" stroke-width="1.67493" stroke-miterlimit="4" stroke-linejoin="round" stroke-linecap="round" stroke="#000000" fill-rule="evenodd" fill-opacity="0.259459" fill="#ffffff" id="path2282"/>
  <path d="m315.847992,87.2929c0,0 -2.936981,-7.342201 -13.216003,-8.810699c-10.278992,-1.468399 -26.431976,11.747597 -16.152985,10.279099c10.278992,-1.468399 41.115997,-8.8106 51.394989,-5.873802c10.279022,2.936905 29.369019,19.0895 14.684998,19.0895c-14.684998,0 -36.710999,-14.684097 -36.710999,-14.684097z" stroke-width="7.0877" stroke-miterlimit="4" stroke-linejoin="round" stroke-linecap="round" stroke="#000000" fill-rule="evenodd" fill-opacity="0.75" fill="none" id="path2321"/>
  <path d="m292.352997,107.850998c0,0 13.216003,-13.215897 20.558014,-19.089699c7.34198,-5.873802 1.467987,19.089699 5.873993,33.774704c4.404999,14.683998 1.467987,13.215996 1.467987,13.215996" stroke-width="7.0877" stroke-miterlimit="4" stroke="#000000" fill-rule="evenodd" fill-opacity="0.75" fill="none" id="path2323"/>
  <text xml:space="preserve" y="352" x="393" transform="matrix(21.5714 0 0 1 -8228.57 0)" text-anchor="middle" stroke-width="0" stroke-dasharray="null" stroke="#000000" fill="#000000" font-size="24" font-family="Arial" id="svg_1"/>
  <text xml:space="preserve" y="338" x="226" transform="matrix(16.4286 0 0 1 -3378.86 0)" text-anchor="middle" stroke-width="0" stroke-linejoin="null" stroke-linecap="null" stroke-dasharray="null" stroke="#000000" fill="#000000" font-size="24" font-family="Arial" id="svg_2"/>
 </g>
</svg>